<svg width="185" height="61" viewBox="0 0 185 61" fill="none" xmlns="http://www.w3.org/2000/svg">
<path d="M74.8261 19.231C74.8261 20.9427 75.7491 21.7147 77.2092 21.7147H94.6122C96.1226 21.7147 96.861 22.8895 96.861 24.0474C96.861 25.2222 96.1226 26.3466 94.6122 26.3466H85.8352V29.4177H99.7307C101.342 29.4177 102.114 30.4918 102.114 31.6665C102.114 32.8916 101.342 33.9657 99.7307 33.9657H66.4519C64.8911 33.9657 64.1191 32.8916 64.1191 31.6665C64.1191 30.4918 64.9079 29.4177 66.4519 29.4177H80.4985V26.3466H76.3533C72.2081 26.3466 69.4391 23.9635 69.4391 19.3317V15.6732C69.4391 12.4007 70.9998 10.605 74.5073 10.605H94.2933C95.8037 10.605 96.5925 11.7797 96.5925 12.9377C96.5925 14.1124 95.8205 15.2704 94.2933 15.2704H76.3868C75.3631 15.2704 74.8261 15.7571 74.8261 16.7808V19.231ZM95.4513 50.6303C96.8106 50.6303 97.784 51.5029 97.784 52.9294C97.784 54.3391 96.8106 55.2286 95.4513 55.2286H75.2289C71.4697 55.2286 68.8349 52.5434 68.8349 49.2877C68.8349 46.0152 71.4697 43.5314 75.2289 43.5314H90.0475C90.9201 43.5314 91.5579 42.8937 91.5579 42.0714C91.5579 41.2491 90.9201 40.796 90.0475 40.796H71.9564C70.597 40.796 69.6237 40.0072 69.6237 38.5975C69.6237 37.1878 70.597 36.2984 71.9564 36.2984H90.4335C94.1926 36.2984 96.8274 38.2954 96.8274 42.0546C96.8274 45.8138 94.1926 47.8612 90.4335 47.8612H75.6149C74.7422 47.8612 74.1045 48.4486 74.1045 49.2709C74.1045 50.0932 74.7422 50.6303 75.6149 50.6303H95.4513Z" fill="#009AEE"/>
<path d="M106.914 45.9482C105.353 45.9482 104.581 44.7734 104.581 43.5651C104.581 42.3904 105.353 41.2324 106.914 41.2324H115.389V35.7279H112.519C109.012 35.7279 107.451 33.9658 107.451 30.7101V14.7671C107.451 12.9546 108.76 12.0316 110.136 12.0316C111.495 12.0316 112.871 12.9546 112.871 14.7671V19.8353H123.444V14.7503C123.444 12.9378 124.753 12.0148 126.129 12.0148C127.505 12.0148 128.865 12.9378 128.865 14.7503V30.6933C128.865 33.9658 127.304 35.7111 123.797 35.7111H120.96V41.2156H133.581V12.6022C133.581 10.8065 134.94 9.8667 136.316 9.8667C137.675 9.8667 139.051 10.7897 139.051 12.6022V26.7327H143.683C145.244 26.7327 146.016 27.9074 146.016 29.0654C146.016 30.2402 145.227 31.3981 143.683 31.3981H139.051V50.8486C139.051 52.661 137.692 53.584 136.316 53.584C134.957 53.584 133.581 52.661 133.581 50.8486V45.9314H106.914V45.9482ZM123.444 31.0793V24.4503H112.871V31.0793H123.444Z" fill="#009AEE"/>
<path d="M157.025 19.5666H153.266C151.705 19.5666 150.933 18.4422 150.933 17.2675C150.933 16.0424 151.705 14.8844 153.266 14.8844H163.167V12.0147C163.167 10.068 164.627 9.19531 166.003 9.19531C167.463 9.19531 168.823 10.068 168.823 12.0147V14.8844H178.573C180.184 14.8844 180.956 16.0592 180.956 17.2675C180.956 18.4422 180.184 19.5666 178.573 19.5666H174.965C176.626 21.2784 177.65 23.5104 177.65 26.1452C177.65 28.4779 176.828 30.5254 175.502 32.1364V42.6588H182.618C184.229 42.6588 185.001 43.8335 185.001 44.9915C185.001 46.2166 184.229 47.3746 182.618 47.3746H149.322C147.761 47.3746 146.989 46.1998 146.989 44.9915C146.989 43.8168 147.778 42.6588 149.322 42.6588H156.404V32.0357C155.095 30.4247 154.357 28.4276 154.357 26.1284C154.357 23.5272 155.33 21.2784 157.025 19.5666ZM166.003 31.8176C169.326 31.8176 172.246 29.4849 172.246 25.7257C172.246 21.7819 169.326 19.5834 166.003 19.5834C162.647 19.5834 159.609 21.7819 159.609 25.7257C159.609 29.4681 162.63 31.8176 166.003 31.8176ZM161.858 35.56V42.6756H170.048V35.6103C168.772 35.946 167.413 36.1474 166.003 36.1474C164.543 36.1474 163.134 35.9627 161.858 35.56Z" fill="#009AEE"/>
<path d="M21.3571 38.2784C18.7223 38.2784 16.5742 36.1303 16.5742 33.4955C16.5742 30.8607 18.7223 28.6958 21.3571 28.6958C23.9919 28.6958 26.1568 30.8439 26.1568 33.4955C26.1568 33.7136 26.14 33.9486 26.1064 34.1668C25.7708 36.5163 23.7234 38.2784 21.3571 38.2784ZM21.3571 31.5655C20.2998 31.5655 19.4272 32.4214 19.4272 33.4955C19.4272 34.5528 20.2831 35.4254 21.3571 35.4254C22.3137 35.4254 23.136 34.7206 23.2703 33.7808C23.2871 33.6969 23.2871 33.5962 23.2871 33.5123C23.2871 32.4214 22.4144 31.5655 21.3571 31.5655Z" fill="#009AEE"/>
<path d="M32.786 38.2784C30.1512 38.2784 27.9863 36.1303 27.9863 33.4955C27.9863 30.8607 30.1344 28.6958 32.786 28.6958C35.4208 28.6958 37.5857 30.8439 37.5857 33.4955C37.5857 33.7136 37.5689 33.9486 37.5353 34.1668C37.1997 36.5163 35.1523 38.2784 32.786 38.2784ZM32.786 31.5655C31.7287 31.5655 30.8561 32.4214 30.8561 33.4955C30.8561 34.5528 31.712 35.4254 32.786 35.4254C33.7426 35.4254 34.5649 34.7206 34.6992 33.7808C34.7159 33.6969 34.7159 33.5962 34.7159 33.5123C34.7159 32.4214 33.8433 31.5655 32.786 31.5655Z" fill="#009AEE"/>
<path d="M29.7154 32.0527H23.9424V34.9225H29.7154V32.0527Z" fill="#009AEE"/>
<path d="M27.064 53.2482C16.5249 53.2482 7.94922 44.6725 7.94922 34.1334C7.94922 23.5942 16.5249 15.0186 27.064 15.0186C37.6032 15.0186 46.1788 23.5942 46.1788 34.1334C46.1956 44.6725 37.62 53.2482 27.064 53.2482ZM27.064 19.8015C19.1764 19.8015 12.7489 26.229 12.7489 34.1166C12.7489 42.0042 19.1764 48.4317 27.064 48.4317C34.9516 48.4317 41.3791 42.0042 41.3791 34.1166C41.3959 26.229 34.9684 19.8015 27.064 19.8015Z" fill="#009AEE"/>
<path d="M51.4147 27.1018C50.7937 27.1018 50.156 26.8836 49.6525 26.4473L27.0638 7.24854L4.49193 26.4473C3.35075 27.4206 1.6222 27.2864 0.648836 26.1284C-0.324526 24.9872 -0.190269 23.2587 0.967696 22.2853L25.3017 1.59298C26.3254 0.720309 27.819 0.720309 28.826 1.59298L53.1768 22.3021C54.318 23.2754 54.469 25.004 53.4789 26.1452C52.9586 26.7661 52.1866 27.1018 51.4147 27.1018Z" fill="#009AEE"/>
<path d="M16.5576 13.9947C16.5576 15.5219 15.3157 16.7638 13.7886 16.7638C12.2614 16.7638 11.0195 15.5219 11.0195 13.9947V4.68067C11.0195 3.1535 12.2614 1.91162 13.7886 1.91162C15.3157 1.91162 16.5576 3.1535 16.5576 4.68067V13.9947Z" fill="#009AEE"/>
<path d="M23.422 24.3996C22.8682 24.3996 22.415 23.9465 22.415 23.3927C22.415 22.8389 22.8682 22.3857 23.422 22.3857H30.7725C31.3263 22.3857 31.7794 22.8389 31.7794 23.3927C31.7794 23.9465 31.3263 24.3996 30.7725 24.3996H23.422Z" fill="#009AEE"/>
<path d="M21.9786 27.4538C21.4248 27.4538 20.9717 27.0007 20.9717 26.4469C20.9717 25.8931 21.4248 25.4399 21.9786 25.4399H32.2157C32.7695 25.4399 33.2226 25.8931 33.2226 26.4469C33.2226 27.0007 32.7695 27.4538 32.2157 27.4538H21.9786Z" fill="#009AEE"/>
<path d="M24.9334 56.9229C24.9334 58.6515 23.7419 60.0611 22.265 60.0611C20.7882 60.0611 19.5967 58.6515 19.5967 56.9229V52.0225C19.5967 50.294 20.7882 48.8843 22.265 48.8843C23.7419 48.8843 24.9334 50.2772 24.9334 52.0225V56.9229Z" fill="#009AEE"/>
<path d="M34.5486 56.9229C34.5486 58.6515 33.3571 60.0611 31.8803 60.0611C30.4034 60.0611 29.2119 58.6515 29.2119 56.9229V52.0225C29.2119 50.294 30.4034 48.8843 31.8803 48.8843C33.3571 48.8843 34.5486 50.2772 34.5486 52.0225V56.9229Z" fill="#009AEE"/>
<path d="M17.2966 60.0615C15.652 60.0615 14.3262 58.9371 14.3262 57.5442C14.3262 56.1513 15.652 55.0269 17.2966 55.0269H21.9452C23.5899 55.0269 24.9157 56.1513 24.9157 57.5442C24.9157 58.9371 23.5899 60.0615 21.9452 60.0615H17.2966Z" fill="#009AEE"/>
<path d="M32.1823 60.0615C30.5377 60.0615 29.2119 58.9371 29.2119 57.5442C29.2119 56.1513 30.5377 55.0269 32.1823 55.0269H36.831C38.4756 55.0269 39.8014 56.1513 39.8014 57.5442C39.8014 58.9371 38.4756 60.0615 36.831 60.0615H32.1823Z" fill="#009AEE"/>
</svg>
